<?xml version="1.0" standalone="no"?>
<!DOCTYPE svg PUBLIC "-//W3C//DTD SVG 20010904//EN"
 "http://www.w3.org/TR/2001/REC-SVG-20010904/DTD/svg10.dtd">
<svg version="1.0" xmlns="http://www.w3.org/2000/svg"
 width="782.000000pt" height="782.000000pt" viewBox="0 0 782.000000 782.000000"
 preserveAspectRatio="xMidYMid meet">
<metadata>
Created by potrace 1.11, written by Peter Selinger 2001-2013
</metadata>
<g transform="translate(0.000000,782.000000) scale(0.100000,-0.100000)"
fill="#000000" stroke="none">
<path d="M0 6422 l0 -997 41 3 40 4 -3 71 c-3 69 -4 72 -33 86 l-30 14 26 9
c14 5 31 20 37 33 15 32 40 32 52 1 5 -13 16 -29 26 -34 9 -5 18 -21 19 -36 3
-21 -2 -30 -21 -38 -29 -14 -30 -18 -4 -51 11 -14 20 -32 20 -40 0 -9 15 -20
33 -26 41 -14 77 -66 77 -114 l0 -37 -140 0 -140 0 0 -40 0 -40 178 -1 c97 0
260 -2 362 -3 102 0 201 1 220 4 32 5 35 8 35 40 0 33 -2 35 -35 38 -48 5 -53
13 -37 60 16 46 14 52 -20 52 -23 0 -29 15 -15 36 4 6 30 10 57 10 l50 -1 5
140 5 140 28 9 c21 8 35 7 55 -5 l27 -15 -4 -131 c-2 -87 0 -133 8 -137 18
-11 339 -12 350 -1 5 6 12 194 16 455 4 245 9 477 11 515 2 39 3 114 4 168 0
53 4 97 9 97 5 0 9 -264 8 -615 0 -339 2 -617 4 -620 3 -2 112 -5 244 -7 209
-3 240 -1 236 12 -3 13 -13 251 -12 290 3 98 24 229 40 251 13 17 16 30 10 41
-6 11 -4 18 8 23 15 5 15 8 3 15 -12 7 -12 13 0 37 8 15 19 34 24 42 6 7 12
25 14 40 1 14 8 31 15 36 18 15 40 61 35 76 -2 6 7 23 20 36 12 13 21 27 18
32 -6 9 41 61 55 61 5 0 9 6 9 14 0 18 47 53 80 58 l25 5 -25 10 c-25 11 -23
14 20 26 8 2 15 12 15 22 0 30 57 37 92 13 25 -18 25 -19 6 -15 -20 5 -22 2
-16 -21 5 -24 4 -25 -9 -14 -13 10 -17 10 -22 -3 -3 -9 1 -18 10 -22 12 -4 7
-10 -20 -23 -25 -11 -33 -19 -26 -26 14 -14 -14 -38 -43 -39 -12 0 -23 -8 -25
-17 -3 -14 3 -18 25 -18 l28 0 -27 -24 c-16 -13 -28 -26 -28 -29 0 -15 89 1
117 21 17 12 38 22 46 22 18 0 43 28 33 37 -4 4 8 15 26 25 26 13 29 17 13 18
-19 1 -19 1 3 19 27 23 29 35 3 21 -33 -17 -41 -11 -18 14 13 14 36 28 53 31
39 9 104 38 104 48 0 10 -18 9 -25 -3 -3 -5 -14 -10 -23 -10 -14 1 -14 2 3 12
11 6 30 22 41 34 12 12 38 26 58 29 20 4 34 11 31 15 -6 10 44 60 71 70 12 5
28 22 35 39 8 17 17 31 21 31 5 0 8 9 8 20 0 13 7 20 20 20 11 0 20 5 20 10 0
6 -4 10 -10 10 -5 0 -10 16 -10 35 0 19 -4 35 -10 35 -5 0 -10 -8 -10 -18 0
-10 -9 -28 -20 -40 -11 -12 -20 -28 -20 -37 0 -20 -26 -19 -40 3 -8 12 -13 13
-16 5 -6 -15 -34 -18 -34 -4 0 5 -7 11 -14 14 -10 4 -13 1 -10 -8 9 -23 -5
-38 -22 -24 -11 9 -14 8 -14 -5 0 -9 -3 -15 -7 -15 -25 4 -43 -3 -43 -18 0
-14 -2 -14 -20 2 -29 26 -28 92 9 499 6 59 15 114 22 122 6 7 8 18 4 24 -4 7
-394 10 -1241 10 l-1234 0 0 -998z m1740 781 c0 -10 3 -42 6 -70 8 -66 -11
-72 -20 -7 -9 66 -8 94 4 94 6 0 10 -8 10 -17z m5 -142 c3 -5 1 -12 -5 -16 -5
-3 -10 1 -10 9 0 18 6 21 15 7z m5 -140 c0 -13 -29 -35 -37 -28 -7 8 15 37 28
37 5 0 9 -4 9 -9z m-1508 -711 c-1 -634 -3 -702 -18 -723 -15 -20 -16 18 -9
558 4 319 8 609 10 645 1 36 3 103 3 149 1 46 5 81 8 78 4 -4 6 -322 6 -707z
m2055 588 c-3 -7 -5 -2 -5 12 0 14 2 19 5 13 2 -7 2 -19 0 -25z m371 -27 c3
-8 -1 -12 -9 -9 -7 2 -15 10 -17 17 -3 8 1 12 9 9 7 -2 15 -10 17 -17z m-371
-23 c-3 -7 -5 -2 -5 12 0 14 2 19 5 13 2 -7 2 -19 0 -25z m-978 -60 c1 -5 -3
-8 -9 -8 -5 0 -10 12 -9 28 0 24 1 25 9 7 5 -11 9 -23 9 -27z m985 8 c2 -14 0
-26 -4 -26 -10 0 -21 41 -14 52 8 13 15 3 18 -26z m-14 -62 c0 -9 -5 -14 -12
-12 -18 6 -21 28 -4 28 9 0 16 -7 16 -16z m-19 -36 c9 -17 8 -19 -13 -16 -15
2 -24 11 -26 25 -3 18 0 21 13 17 8 -4 20 -15 26 -26z m-1659 -856 l93 -7 6
-39 c13 -78 12 -78 -125 -70 -71 4 -124 11 -128 18 -12 18 -9 91 4 104 6 6 22
9 34 6 13 -3 65 -9 116 -12z"/>
<path d="M2783 7219 c4 -133 10 -204 17 -209 6 -4 35 -8 64 -9 38 -1 57 3 71
17 12 11 35 18 57 18 25 0 45 7 61 22 15 14 36 22 60 22 20 0 37 5 37 10 0 6
7 10 15 10 8 0 15 5 15 11 0 7 16 9 51 4 47 -7 53 -5 80 21 25 24 32 26 39 14
8 -12 10 -12 16 3 3 9 10 14 15 11 5 -3 9 1 9 8 1 8 9 4 19 -9 19 -23 38 -32
26 -14 -9 15 28 31 47 20 11 -6 20 -4 28 6 13 16 42 20 53 8 4 -3 21 -8 39
-10 18 -2 37 -8 42 -13 6 -6 20 -3 38 8 24 14 30 14 37 3 5 -7 14 -10 21 -6 6
4 20 -1 30 -10 17 -15 21 -15 33 -3 8 8 17 23 20 34 3 13 5 14 6 3 1 -10 12
-15 37 -16 20 -1 40 -7 44 -14 5 -6 14 -9 22 -6 8 3 20 -4 26 -14 14 -22 38
-25 45 -6 3 9 7 9 20 -1 9 -8 29 -11 46 -9 17 3 33 1 36 -3 3 -5 12 -7 20 -3
9 3 15 -1 15 -11 0 -9 7 -16 17 -16 9 0 13 -3 10 -7 -4 -3 -2 -12 4 -19 12
-14 38 -8 55 12 8 10 18 7 48 -18 35 -28 39 -30 48 -14 9 16 12 16 34 1 18
-11 24 -12 24 -3 1 7 19 -7 40 -31 22 -24 40 -38 40 -32 0 7 5 9 10 6 6 -3 10
2 10 11 0 16 1 16 20 -1 11 -10 20 -24 20 -31 0 -14 47 -54 62 -54 6 0 12 9
15 20 7 26 23 15 23 -16 0 -28 6 -30 27 -8 15 15 17 14 28 -5 15 -29 53 -54
70 -47 9 3 15 0 15 -9 0 -25 31 -46 63 -43 25 2 31 -1 32 -19 1 -13 4 -26 8
-29 8 -8 53 -7 127 1 85 9 134 -31 154 -126 4 -16 14 -29 28 -33 41 -10 114
-6 133 8 17 12 22 11 45 -6 23 -17 78 -27 173 -31 15 -1 17 -7 12 -33 -3 -18
-12 -45 -20 -62 -15 -29 -12 -62 6 -62 15 0 10 -30 -7 -47 -17 -17 -12 -62 8
-74 8 -5 9 -117 3 -381 -4 -205 -7 -382 -6 -393 1 -11 3 -47 4 -80 l2 -60 235
0 235 0 5 114 c4 86 9 116 20 123 20 12 70 -7 70 -26 0 -10 9 -14 27 -13 22 2
29 -3 31 -21 5 -33 -15 -54 -38 -42 -23 12 -28 -3 -26 -78 1 -46 4 -54 26 -65
19 -9 26 -22 28 -50 3 -35 0 -39 -27 -50 -39 -14 -43 -53 -8 -62 33 -9 62 -76
62 -147 0 -64 8 -77 35 -60 30 19 38 15 42 -20 2 -28 8 -34 31 -36 25 -3 27
-1 27 31 0 30 52 192 66 206 3 3 44 7 90 7 47 1 88 5 92 8 3 4 6 30 7 58 0 49
-4 56 -43 74 -2 1 -10 26 -18 55 -18 67 -25 147 -14 154 4 2 8 163 8 357 0
194 2 380 6 413 3 33 8 121 11 195 3 74 8 146 10 160 3 14 9 81 15 150 6 69
18 148 27 175 33 102 46 135 53 135 4 0 10 9 13 19 2 10 16 27 31 36 31 21
120 25 138 7 10 -10 13 -69 11 -265 -3 -293 -1 -299 67 -278 22 6 73 11 114
10 74 -3 74 -3 60 -25 -10 -14 -22 -20 -34 -17 -11 3 -20 3 -20 1 0 -14 33
-68 41 -68 6 0 7 -4 4 -10 -3 -5 0 -10 9 -10 8 0 16 6 19 13 3 6 4 1 4 -12 -1
-13 -8 -26 -17 -28 -8 -2 -23 -17 -32 -33 -14 -25 -14 -29 -1 -34 8 -4 13 -13
9 -21 -3 -8 0 -15 7 -15 8 0 7 -4 -3 -10 -10 -6 -20 -4 -32 7 -17 15 -18 15
-18 0 0 -18 -5 -19 -117 -21 -34 -1 -65 -5 -68 -8 -4 -4 -11 -113 -16 -242 -7
-171 -14 -243 -24 -263 -8 -15 -15 -38 -15 -51 0 -13 -7 -37 -16 -54 -9 -17
-27 -91 -40 -165 -24 -133 -24 -135 -6 -166 11 -19 25 -31 35 -29 18 3 21 -9
11 -45 -7 -25 -33 -37 -79 -38 -26 0 -30 -4 -36 -39 -10 -60 -3 -73 44 -79 23
-3 58 -9 78 -12 l36 -7 8 67 c4 37 8 129 10 205 1 76 6 143 9 149 9 15 59 14
74 -1 7 -7 12 -22 12 -34 0 -21 4 -22 73 -21 39 0 115 -3 167 -7 52 -3 129 -8
171 -10 42 -1 81 -6 87 -10 7 -4 37 -4 67 -1 44 6 55 11 55 25 0 35 12 50 39
50 39 0 52 -13 49 -49 l-3 -33 118 -4 117 -5 0 965 0 966 -27 0 c-14 0 -34 -7
-44 -16 -16 -14 -27 -15 -96 -4 -43 7 -114 15 -157 17 l-79 5 6 -29 c6 -31
-11 -62 -30 -56 -16 6 -16 2 -3 -31 9 -23 7 -25 -28 -28 -20 -2 -57 0 -82 3
-25 4 -83 10 -129 14 -47 3 -88 8 -92 11 -4 2 -30 6 -59 9 -28 3 -60 10 -71
15 -19 11 -21 15 -23 60 -1 24 -4 25 -61 25 -57 0 -60 -1 -60 -25 0 -19 -6
-26 -25 -28 -105 -10 -139 -11 -166 -2 -17 6 -57 12 -90 15 -60 4 -169 21
-214 33 -14 3 -810 8 -1769 9 l-1743 3 5 -201z m1067 12 c0 -6 -4 -13 -10 -16
-5 -3 -10 1 -10 9 0 9 5 16 10 16 6 0 10 -4 10 -9z m1490 -393 c0 -19 -2 -20
-10 -8 -13 19 -13 30 0 30 6 0 10 -10 10 -22z m2078 -198 c57 -1 92 -38 85
-91 -3 -20 -1 -39 5 -43 6 -3 6 -23 0 -53 -5 -27 -7 -60 -4 -75 5 -23 1 -29
-20 -34 -31 -8 -286 3 -346 15 -6 1 -2 107 8 229 l6 63 121 -5 c67 -3 132 -6
145 -6z m-356 -62 c-7 -7 -12 -8 -12 -2 0 14 12 26 19 19 2 -3 -1 -11 -7 -17z
m-2 -148 c0 -5 -7 -10 -15 -10 -8 0 -15 5 -15 10 0 6 7 10 15 10 8 0 15 -4 15
-10z m-722 -233 c15 -11 16 -81 2 -107 -7 -14 -6 -41 4 -92 16 -76 17 -283 3
-305 -10 -17 -63 -17 -73 -1 -5 7 -9 37 -9 68 -1 30 -10 84 -19 120 -23 83
-29 243 -10 279 8 14 14 31 14 38 0 23 58 24 88 0z m822 -367 c0 -5 -4 -10 -9
-10 -6 0 -13 5 -16 10 -3 6 1 10 9 10 9 0 16 -4 16 -10z m348 -92 c4 -32 -4
-35 -30 -11 -25 23 -23 45 5 41 16 -2 23 -11 25 -30z m-94 -34 c10 -4 16 -18
16 -40 0 -39 -16 -45 -30 -10 -5 13 -14 26 -21 28 -7 2 -9 10 -5 16 8 13 17
15 40 6z m311 -164 c-3 -5 -12 -10 -18 -10 -7 0 -6 4 3 10 19 12 23 12 15 0z"/>
<path d="M7385 7390 c3 -5 11 -10 16 -10 6 0 7 5 4 10 -3 6 -11 10 -16 10 -6
0 -7 -4 -4 -10z"/>
<path d="M2796 6923 c-11 -11 -6 -23 9 -23 8 0 15 4 15 9 0 13 -16 22 -24 14z"/>
<path d="M2758 6856 c-6 -31 4 -48 24 -41 12 5 14 13 9 33 -9 34 -27 39 -33 8z"/>
<path d="M5085 6550 c-3 -5 -2 -10 4 -10 5 0 13 5 16 10 3 6 2 10 -4 10 -5 0
-13 -4 -16 -10z"/>
<path d="M5210 6490 c-6 -11 -7 -26 -3 -33 4 -6 6 -20 5 -29 -2 -10 2 -18 7
-18 6 0 10 -3 9 -7 -5 -15 36 -73 52 -74 8 -1 22 -2 30 -3 8 -2 25 -3 38 -4
33 -3 27 -22 -8 -22 -33 0 -38 -11 -16 -30 8 -6 13 -17 10 -25 -3 -7 6 -21 19
-31 13 -11 22 -25 19 -32 -5 -16 17 -82 29 -82 5 0 9 -8 9 -18 0 -11 9 -27 20
-37 11 -10 17 -22 14 -26 -3 -5 -1 -9 4 -9 18 0 22 31 28 255 l7 223 -45 7
c-56 8 -89 -7 -87 -38 1 -12 1 -33 1 -46 -2 -19 -5 -21 -16 -12 -11 9 -15 9
-18 0 -2 -6 -10 8 -17 32 -19 65 -25 74 -54 77 -18 2 -29 -3 -37 -18z"/>
<path d="M2391 6483 c-17 -19 -9 -25 18 -15 18 6 20 10 9 19 -10 8 -17 7 -27
-4z"/>
<path d="M2356 6405 c-16 -14 -27 -27 -24 -30 7 -7 38 5 38 15 0 5 7 16 16 24
25 26 2 18 -30 -9z"/>
<path d="M2257 6324 c-22 -14 -37 -27 -35 -30 11 -10 66 19 71 37 3 10 4 19 4
18 -1 0 -19 -11 -40 -25z"/>
<path d="M2131 6282 c-19 -2 -44 -10 -55 -19 -20 -14 -19 -15 18 -10 37 6 38
6 21 -13 -17 -19 -17 -20 1 -20 19 -1 19 -1 0 -15 -11 -8 -17 -17 -14 -20 7
-7 100 47 127 74 22 22 17 28 -9 11 -10 -6 -22 -5 -35 3 -11 7 -35 11 -54 9z"/>
<path d="M2138 6159 c-7 -11 -34 -32 -60 -46 -27 -14 -48 -30 -48 -35 0 -4 8
-4 18 1 9 5 46 24 82 41 62 31 105 59 69 45 -10 -4 -20 -2 -24 4 -10 17 -24
13 -37 -10z"/>
<path d="M2128 5987 c-21 -12 -41 -30 -44 -40 -3 -9 -19 -24 -36 -33 -32 -17
-32 -30 1 -19 11 3 29 21 41 40 11 18 34 40 50 47 17 7 30 16 30 20 0 10 1 11
-42 -15z"/>
<path d="M2140 5955 c-7 -8 -8 -15 -2 -15 5 0 15 7 22 15 7 8 8 15 2 15 -5 0
-15 -7 -22 -15z"/>
<path d="M1980 5880 c-8 -5 -12 -11 -10 -14 3 -2 14 2 24 10 22 15 10 19 -14
4z"/>
<path d="M2064 5879 c-17 -5 -39 -18 -49 -29 -22 -24 -13 -26 20 -4 13 9 28
13 33 11 4 -3 13 3 20 14 7 10 11 19 10 18 -2 0 -17 -5 -34 -10z"/>
<path d="M2015 5811 c-6 -5 -21 -11 -35 -14 l-25 -4 26 -2 c14 0 34 6 45 14
10 8 14 15 9 15 -6 0 -15 -4 -20 -9z"/>
<path d="M2015 5759 c-33 -29 -66 -66 -75 -83 -8 -17 -18 -32 -22 -34 -13 -6
-9 -22 5 -22 7 0 23 8 36 17 23 16 23 17 5 24 -18 6 -18 7 -1 14 9 4 24 4 33
1 13 -5 13 -9 -5 -32 -29 -36 -26 -45 8 -33 17 6 34 22 41 38 12 30 4 82 -12
78 -6 -1 -13 4 -15 11 -3 7 3 12 14 13 17 0 73 59 56 59 -4 0 -35 -23 -68 -51z"/>
<path d="M2215 5760 c-21 -23 -4 -27 19 -4 18 17 20 24 8 24 -5 0 -17 -9 -27
-20z"/>
<path d="M1850 5599 c0 -5 5 -7 10 -4 6 3 10 8 10 11 0 2 -4 4 -10 4 -5 0 -10
-5 -10 -11z"/>
<path d="M1930 5600 c0 -5 5 -10 10 -10 6 0 10 5 10 10 0 6 -4 10 -10 10 -5 0
-10 -4 -10 -10z"/>
<path d="M1900 5580 c0 -5 5 -10 10 -10 6 0 10 5 10 10 0 6 -4 10 -10 10 -5 0
-10 -4 -10 -10z"/>
<path d="M2140 5570 c-8 -5 -12 -11 -9 -14 3 -3 14 1 25 9 21 16 8 20 -16 5z"/>
<path d="M2017 5559 c-10 -6 -25 -8 -33 -5 -8 3 -12 2 -9 -3 10 -17 -63 -64
-98 -64 -18 1 -25 -2 -17 -5 8 -3 18 -9 21 -14 3 -5 22 3 43 17 21 14 42 23
47 20 15 -10 10 -22 -11 -28 -24 -6 -27 -27 -3 -27 9 0 13 -3 9 -7 -4 -5 -16
-8 -27 -8 -27 0 -24 -19 5 -23 16 -2 30 5 46 25 l22 28 22 -26 c21 -24 46 -28
46 -8 0 6 -5 7 -10 4 -6 -4 -17 -1 -25 5 -20 16 -16 70 5 70 11 1 10 4 -5 12
-29 16 -29 16 -15 33 15 18 12 18 -13 4z"/>
<path d="M1925 5550 c4 -6 11 -8 16 -5 14 9 11 15 -7 15 -8 0 -12 -5 -9 -10z"/>
<path d="M2850 5519 c0 -5 5 -7 10 -4 6 3 10 8 10 11 0 2 -4 4 -10 4 -5 0 -10
-5 -10 -11z"/>
<path d="M2069 5481 c-32 -26 -19 -36 28 -20 23 7 32 14 23 17 -8 3 -18 9 -21
14 -3 5 -17 0 -30 -11z"/>
<path d="M6873 5484 c-4 -11 -8 -84 -8 -164 l0 -145 45 -1 c116 -4 279 -6 315
-3 22 1 83 2 135 0 52 -1 102 -2 112 -2 16 1 24 52 31 221 l2 55 -50 7 c-27 5
-102 10 -165 12 -63 3 -137 9 -164 14 -27 6 -59 7 -70 2 -20 -7 -85 0 -148 16
-22 5 -29 2 -35 -12z"/>
<path d="M7576 5425 c-4 -15 -6 -78 -5 -142 2 -137 -2 -133 150 -133 l99 0 0
144 0 144 -57 -2 c-32 0 -86 3 -119 7 -61 9 -61 8 -68 -18z"/>
<path d="M1900 5355 c-18 -19 -20 -25 -8 -25 15 0 48 30 48 43 0 14 -17 6 -40
-18z"/>
<path d="M2107 5343 c-4 -3 -7 -11 -7 -17 0 -6 5 -5 12 2 6 6 9 14 7 17 -3 3
-9 2 -12 -2z"/>
<path d="M1940 5315 c0 -8 9 -15 19 -15 10 0 21 7 25 15 4 11 -1 15 -19 15
-16 0 -25 -6 -25 -15z"/>
<path d="M5486 5301 c-4 -5 -2 -20 3 -33 9 -21 10 -21 10 10 1 32 -3 39 -13
23z"/>
<path d="M1917 5283 c-12 -11 -8 -23 8 -23 18 0 20 -33 3 -60 -11 -17 -10 -22
2 -30 20 -13 35 -7 34 13 -1 9 9 28 22 42 25 27 31 41 14 30 -5 -3 -10 -1 -10
4 0 6 -11 11 -25 11 -14 0 -25 5 -25 10 0 11 -13 13 -23 3z"/>
<path d="M2170 5270 c-8 -5 -12 -12 -9 -15 4 -3 12 1 19 10 14 17 11 19 -10 5z"/>
<path d="M917 5264 c-6 -7 -10 -73 -4 -75 1 0 206 -3 455 -5 429 -5 452 -4
453 13 2 32 -3 58 -12 64 -14 8 -883 11 -892 3z"/>
<path d="M2110 5259 c0 -5 5 -7 10 -4 6 3 10 8 10 11 0 2 -4 4 -10 4 -5 0 -10
-5 -10 -11z"/>
<path d="M5667 5262 c-115 -2 -128 -4 -125 -20 4 -22 54 -27 273 -27 167 0
170 0 173 22 3 21 -1 22 -95 25 -54 2 -156 2 -226 0z"/>
<path d="M2120 5225 c-7 -8 -8 -15 -2 -15 5 0 15 7 22 15 7 8 8 15 2 15 -5 0
-15 -7 -22 -15z"/>
<path d="M5476 5200 c-4 -28 -2 -49 8 -68 15 -26 15 -25 16 41 0 74 -14 90
-24 27z"/>
<path d="M2006 5215 c-4 -12 -1 -16 11 -13 18 3 21 20 5 26 -5 1 -12 -4 -16
-13z"/>
<path d="M2060 5180 c-19 -15 -21 -20 -9 -20 16 0 46 27 38 35 -2 2 -15 -5
-29 -15z"/>
<path d="M2120 5183 c0 -2 6 -11 14 -18 10 -10 16 -11 25 -2 17 17 14 22 -14
23 -14 1 -25 0 -25 -3z"/>
<path d="M2249 5163 c-33 -40 -41 -53 -32 -53 11 0 57 60 50 66 -2 2 -10 -4
-18 -13z"/>
<path d="M2110 5140 c0 -5 5 -10 10 -10 6 0 10 5 10 10 0 6 -4 10 -10 10 -5 0
-10 -4 -10 -10z"/>
<path d="M2272 5127 c-12 -13 -22 -30 -22 -38 0 -19 -78 -91 -83 -76 -2 8 -19
4 -50 -13 -26 -14 -45 -29 -43 -35 4 -12 -49 -65 -66 -65 -9 0 -9 -3 0 -12 8
-8 15 -8 24 -1 7 6 24 13 37 15 20 2 26 -3 32 -26 10 -37 8 -40 -42 -43 -28
-2 -45 3 -59 17 -11 11 -21 20 -22 20 -2 0 -3 -16 -3 -35 -1 -28 3 -35 18 -35
26 0 16 -24 -11 -28 -12 -2 -22 -8 -22 -13 0 -12 17 -11 43 3 12 6 36 13 54
15 26 3 31 0 27 -12 -5 -11 1 -15 23 -15 16 0 34 5 41 12 6 6 14 9 17 6 3 -3
-1 -13 -10 -21 -8 -9 -15 -20 -15 -26 0 -21 -54 -37 -95 -28 -22 4 -52 10 -67
14 -41 8 -34 -7 22 -52 59 -47 82 -78 74 -100 -4 -10 4 -19 27 -29 32 -14 66
-52 61 -68 -1 -5 4 -8 12 -8 8 0 16 10 20 23 7 27 40 69 52 65 12 -4 47 23 60
47 15 28 7 50 -12 34 -19 -16 -30 -4 -14 16 12 14 7 19 -13 16 -10 -2 0 16 22
42 12 15 13 20 2 26 -10 7 -7 18 14 55 15 25 37 53 48 61 12 8 16 15 10 15 -7
0 -33 -25 -59 -55 -26 -30 -51 -55 -55 -55 -4 0 -9 10 -11 23 -3 19 -5 18 -20
-14 -20 -41 -58 -80 -58 -59 0 7 7 21 15 30 22 25 75 128 73 142 -2 7 7 14 19
16 12 2 27 10 35 19 11 14 10 15 -10 9 -15 -5 -22 -3 -22 6 0 10 -2 10 -9 -1
-6 -9 -11 -10 -15 -2 -4 6 0 14 8 17 9 4 16 18 16 34 0 15 9 38 21 51 l20 24
-7 -25 c-6 -22 -5 -23 10 -11 10 8 16 28 16 52 0 22 4 39 10 39 5 0 7 -7 3
-16 -6 -15 -4 -15 20 0 14 10 28 24 31 31 6 17 -10 30 -19 14 -4 -5 -13 -8
-21 -5 -7 3 -16 1 -19 -5 -12 -18 -25 2 -15 22 16 28 -20 26 -48 -4z m18 -91
c0 -3 -4 -8 -10 -11 -5 -3 -10 -1 -10 4 0 6 5 11 10 11 6 0 10 -2 10 -4z m-40
-36 c0 -5 -4 -10 -10 -10 -5 0 -10 5 -10 10 0 6 5 10 10 10 6 0 10 -4 10 -10z
m-30 -35 c-7 -9 -15 -13 -17 -11 -7 7 7 26 19 26 6 0 6 -6 -2 -15z m-91 -19
c-13 -14 -25 -23 -27 -21 -7 7 24 45 36 45 9 0 6 -9 -9 -24z m15 -37 c-3 -5
-10 -7 -15 -3 -5 3 -7 10 -3 15 3 5 10 7 15 3 5 -3 7 -10 3 -15z"/>
<path d="M2050 5129 c0 -5 5 -7 10 -4 6 3 10 8 10 11 0 2 -4 4 -10 4 -5 0 -10
-5 -10 -11z"/>
<path d="M1904 5114 c-18 -14 -18 -14 6 -3 31 14 36 19 24 19 -6 0 -19 -7 -30
-16z"/>
<path d="M2410 5090 c0 -5 4 -10 9 -10 6 0 13 5 16 10 3 6 -1 10 -9 10 -9 0
-16 -4 -16 -10z"/>
<path d="M1946 5053 c-11 -11 -6 -23 9 -23 8 0 15 4 15 9 0 13 -16 22 -24 14z"/>
<path d="M2120 5029 c0 -5 5 -7 10 -4 6 3 10 8 10 11 0 2 -4 4 -10 4 -5 0 -10
-5 -10 -11z"/>
<path d="M1947 5003 c-4 -3 -7 -11 -7 -17 0 -6 5 -5 12 2 6 6 9 14 7 17 -3 3
-9 2 -12 -2z"/>
<path d="M1985 4969 c-10 -15 3 -25 16 -12 7 7 7 13 1 17 -6 3 -14 1 -17 -5z"/>
<path d="M3775 4970 c-60 -25 -211 -49 -340 -55 -95 -5 -132 -20 -159 -66 -10
-16 -23 -29 -30 -29 -7 0 -21 -10 -32 -21 -10 -12 -29 -25 -41 -30 -12 -4 -29
-24 -39 -44 -9 -20 -27 -41 -38 -45 -30 -13 -49 -31 -64 -60 -6 -14 -16 -32
-22 -40 -30 -45 -47 -134 -30 -156 6 -6 9 -18 8 -25 -2 -8 7 -15 19 -17 12 -2
27 -9 33 -17 6 -8 18 -11 26 -8 8 3 14 0 14 -6 0 -6 -8 -11 -19 -11 -22 0 -67
-34 -82 -61 -9 -18 -7 -19 46 -18 30 1 63 8 72 14 14 11 19 10 28 -2 10 -13
15 -14 36 -2 l24 14 -22 3 c-13 2 -23 9 -23 16 0 18 33 46 53 46 9 0 36 10 59
22 58 30 68 31 150 8 122 -34 114 -52 -21 -54 -65 -1 -94 -5 -114 -19 -36 -23
-34 -35 6 -39 l32 -4 -30 -13 c-16 -8 -39 -14 -49 -15 -26 -1 -33 -26 -8 -26
11 0 22 -7 26 -15 3 -8 17 -15 32 -15 29 0 110 -21 196 -52 32 -11 65 -18 74
-14 10 4 25 -1 35 -10 11 -10 19 -12 19 -6 0 6 10 8 26 3 32 -8 127 2 174 19
70 26 183 81 224 109 22 16 71 58 108 94 66 63 82 72 71 39 -3 -10 4 -2 16 16
20 31 30 120 15 135 -14 13 -11 77 3 77 7 0 13 4 13 8 0 5 17 20 38 34 32 20
56 26 132 31 132 8 142 2 165 -117 17 -92 70 -247 99 -290 14 -22 19 -23 45
-13 25 9 33 8 49 -6 10 -9 25 -17 34 -17 8 0 18 -3 22 -7 3 -4 23 -13 44 -21
44 -16 252 -26 252 -12 0 6 18 10 40 10 26 0 47 7 59 19 13 13 37 21 68 23
l48 3 -57 33 c-32 18 -58 36 -58 41 0 5 16 9 35 8 19 -1 35 -4 35 -8 0 -4 10
-9 23 -13 12 -3 30 -19 39 -36 19 -33 46 -44 29 -11 -12 21 -63 67 -82 73 -28
9 6 28 62 34 55 6 59 8 53 28 -3 11 -13 28 -20 37 -15 17 -33 97 -26 117 6 18
19 14 25 -8 3 -11 13 -20 22 -20 12 0 15 5 11 16 -3 9 -3 20 0 26 4 6 8 27 10
47 3 39 7 56 19 84 5 12 2 24 -10 36 -16 18 -15 19 2 23 13 2 9 9 -21 26 -21
13 -36 25 -33 29 4 3 -2 17 -13 30 -35 45 -71 66 -117 69 -25 2 -51 8 -57 13
-6 5 -45 11 -86 12 -60 2 -86 8 -130 31 -45 24 -57 26 -65 15 -10 -14 -75 -12
-75 2 0 4 -7 8 -15 8 -8 0 -15 -4 -15 -9 0 -4 -9 -8 -19 -8 -11 0 -22 -4 -26
-9 -7 -12 -80 -4 -108 10 -10 6 -26 7 -35 3 -9 -4 -28 -8 -42 -8 -20 -1 -25
-6 -26 -33 -2 -47 -12 -66 -29 -59 -9 3 -24 1 -34 -6 -11 -7 -26 -8 -37 -3
-11 5 -47 7 -82 6 -60 -1 -63 0 -57 20 6 19 4 20 -27 14 -18 -4 -38 -13 -44
-21 -16 -20 -66 4 -60 29 5 21 -17 23 -34 2 -19 -23 -43 -19 -37 6 5 19 3 20
-36 13 -60 -10 -117 -5 -134 12 -11 10 -25 13 -44 9 -22 -5 -29 -3 -29 9 0 12
-10 16 -34 16 -19 0 -40 2 -48 4 -7 3 -22 1 -33 -4z m460 -130 c-3 -5 -10 -10
-16 -10 -5 0 -9 5 -9 10 0 6 7 10 16 10 8 0 12 -4 9 -10z m-1065 -359 c0 -19
-72 -101 -90 -101 -33 0 -31 18 6 48 24 20 32 32 24 37 -9 6 -9 10 1 16 18 11
59 11 59 0z m2086 -39 c7 -4 8 -15 3 -27 -4 -11 -8 -14 -8 -6 -1 11 -4 11 -16
1 -23 -19 -39 -1 -19 21 19 21 24 22 40 11z m5 -69 c13 -16 12 -17 -3 -4 -10
7 -18 15 -18 17 0 8 8 3 21 -13z"/>
<path d="M2295 4850 c-3 -5 -1 -10 4 -10 6 0 11 5 11 10 0 6 -2 10 -4 10 -3 0
-8 -4 -11 -10z"/>
<path d="M2245 4810 c-3 -5 -1 -10 4 -10 6 0 11 5 11 10 0 6 -2 10 -4 10 -3 0
-8 -4 -11 -10z"/>
<path d="M1677 4581 c-39 -59 -38 -155 2 -246 11 -26 21 -53 21 -60 0 -7 7
-15 14 -18 16 -6 32 26 21 42 -3 6 3 18 14 28 12 11 25 47 35 98 28 144 29
132 -16 165 -23 17 -46 30 -53 30 -7 0 -24 -18 -38 -39z"/>
<path d="M2214 4476 c-18 -14 -18 -15 6 -25 18 -7 20 -10 8 -10 -11 -1 -18 -9
-18 -20 0 -11 -3 -26 -6 -35 -3 -9 -1 -16 5 -16 6 0 11 8 11 18 0 11 9 27 20
37 13 12 17 22 11 28 -5 5 -7 16 -4 23 7 18 -8 18 -33 0z"/>
<path d="M2277 4446 c-6 -16 2 -28 14 -20 12 7 11 34 0 34 -5 0 -11 -6 -14
-14z"/>
<path d="M1925 4423 c6 -52 18 -74 42 -84 69 -26 75 2 16 70 -41 48 -62 53
-58 14z"/>
<path d="M2265 4370 c-3 -5 -1 -10 4 -10 6 0 11 5 11 10 0 6 -2 10 -4 10 -3 0
-8 -4 -11 -10z"/>
<path d="M2235 4349 c-4 -6 -5 -12 -2 -15 2 -3 7 2 10 11 7 17 1 20 -8 4z"/>
<path d="M1960 4309 c0 -5 5 -7 10 -4 6 3 10 8 10 11 0 2 -4 4 -10 4 -5 0 -10
-5 -10 -11z"/>
<path d="M2010 4240 c-25 -5 -55 -6 -67 -3 -17 4 -31 -4 -53 -27 -44 -47 -43
-110 4 -176 19 -27 60 -86 92 -132 53 -78 78 -102 105 -102 8 0 8 4 1 13 -6 6
-11 41 -13 77 -2 65 -2 65 24 62 21 -2 27 1 27 18 0 11 6 20 13 20 17 0 67 65
67 87 0 10 -23 53 -50 96 -54 84 -53 84 -150 67z"/>
<path d="M2290 4230 c0 -5 5 -10 11 -10 5 0 7 5 4 10 -3 6 -8 10 -11 10 -2 0
-4 -4 -4 -10z"/>
<path d="M2196 3938 c-18 -21 -18 -24 -3 -51 10 -16 15 -33 12 -37 -3 -5 4 -8
15 -7 16 1 20 6 16 22 -3 11 -6 37 -6 58 0 43 -8 46 -34 15z"/>
<path d="M4821 3919 c-11 -11 -21 -27 -21 -35 0 -27 29 -73 65 -100 81 -62 96
-138 43 -218 -36 -56 -52 -64 -77 -42 -21 19 -111 18 -118 -1 -3 -7 -21 -13
-43 -13 -22 0 -43 -7 -50 -15 -7 -9 -20 -13 -27 -10 -8 3 -23 -1 -34 -9 -17
-11 -29 -10 -86 10 -74 26 -165 33 -258 20 -33 -5 -73 -8 -90 -8 -65 3 -98 97
-75 221 6 35 9 65 6 68 -12 13 -123 -33 -153 -62 -17 -18 -43 -35 -57 -39 -32
-8 -122 -75 -118 -88 1 -5 -8 -8 -20 -6 -15 2 -22 -2 -20 -11 2 -7 -6 -20 -18
-28 -11 -8 -20 -21 -20 -29 0 -8 -12 -19 -27 -25 -15 -5 -33 -18 -40 -29 -8
-12 -20 -16 -34 -13 -23 6 -68 -39 -69 -69 0 -11 -5 -15 -15 -12 -17 7 -21
-11 -5 -21 8 -5 7 -11 -1 -21 -8 -10 -8 -14 0 -14 19 0 13 -18 -24 -69 -37
-51 -44 -82 -22 -103 9 -8 12 -28 10 -58 -3 -25 0 -65 5 -89 8 -31 7 -51 -1
-69 -9 -20 -9 -26 1 -30 6 -2 12 -11 12 -20 0 -15 2 -15 10 -2 8 12 10 9 10
-11 0 -31 26 -123 45 -159 9 -17 10 -31 4 -43 -7 -11 -7 -17 0 -17 6 0 13 -17
17 -37 4 -21 12 -41 18 -45 8 -6 6 -11 -4 -18 -13 -8 -12 -11 4 -23 18 -13 18
-14 -4 -35 -19 -18 -21 -24 -10 -37 7 -8 19 -15 26 -15 16 0 19 -16 4 -25 -18
-11 -11 -27 10 -22 13 3 20 0 20 -8 0 -19 -17 -28 -23 -13 -2 7 -5 -4 -5 -25
0 -31 5 -40 24 -49 13 -6 24 -16 24 -21 0 -6 -3 -7 -7 -4 -3 4 -15 0 -24 -9
-17 -16 -19 -16 -25 0 -9 23 -21 20 -28 -6 l-6 -23 -18 21 c-13 17 -32 23 -80
27 -72 6 -80 10 -62 32 13 15 57 17 76 3 6 -4 19 4 32 21 l21 29 -32 6 c-18 3
-43 4 -57 1 -13 -2 -27 1 -31 7 -6 9 -11 9 -23 -1 -19 -16 -51 -10 -51 9 0 9
-8 14 -18 12 -10 -2 -25 2 -32 8 -8 7 -24 9 -35 5 -16 -5 -23 -2 -27 14 -3 12
-12 21 -19 21 -17 0 -18 -22 -2 -38 9 -9 9 -12 0 -12 -17 0 -15 -26 4 -55 9
-14 12 -25 6 -25 -5 0 -10 -6 -9 -12 1 -36 -5 -48 -23 -48 -13 0 -20 7 -20 19
0 24 -23 33 -55 21 -16 -6 -25 -6 -25 0 0 6 -9 10 -21 10 -11 0 -18 4 -15 8 3
5 -8 19 -24 31 -17 12 -30 29 -30 38 0 12 -3 13 -15 3 -20 -16 -45 -6 -45 19
0 14 -5 19 -15 15 -8 -4 -15 -1 -15 5 0 5 -9 15 -20 21 -14 7 -20 7 -20 0 0
-5 7 -10 16 -10 12 0 15 -6 10 -24 -6 -25 19 -86 35 -86 5 0 9 -5 9 -11 0 -6
-9 -8 -20 -4 -16 5 -20 2 -20 -15 0 -17 -5 -21 -20 -17 -13 3 -20 0 -20 -9 0
-8 6 -14 14 -14 23 0 25 -24 3 -42 -25 -22 -33 -22 -41 -3 -3 8 -13 15 -22 15
-16 0 50 -69 131 -135 33 -27 61 -69 57 -87 -1 -4 6 -4 15 -1 12 5 15 2 11 -9
-4 -9 -1 -21 5 -28 10 -10 1 -11 -42 -7 -29 4 -59 12 -67 18 -8 7 -17 9 -21 6
-3 -4 2 -9 11 -13 9 -3 16 -11 16 -18 0 -6 28 -39 63 -72 75 -73 79 -100 14
-90 -32 5 -38 3 -24 -5 29 -17 8 -30 -24 -14 -49 26 -33 3 60 -85 63 -60 87
-88 80 -96 -13 -16 8 -29 24 -15 18 14 72 -20 92 -59 8 -16 21 -30 27 -30 6 0
16 -7 22 -15 17 -23 292 -139 463 -195 216 -71 499 -140 581 -140 13 0 -10 26
-47 52 -22 16 -21 16 46 36 37 11 104 25 147 32 43 6 112 23 153 36 113 37
115 36 109 -39 -6 -93 1 -99 76 -60 83 43 134 86 159 134 27 54 34 144 15 200
-8 24 -18 59 -21 78 -7 42 -14 53 -26 46 -5 -3 -6 0 -3 8 3 8 -2 20 -11 27 -8
7 -15 18 -15 24 0 16 -32 78 -58 111 -17 22 -19 30 -9 46 6 10 15 19 19 19 18
0 85 -96 129 -185 61 -125 83 -215 76 -312 -4 -46 0 -91 9 -125 44 -168 -19
-294 -199 -395 -41 -23 -93 -46 -115 -52 -23 -6 -59 -15 -79 -21 -95 -24 -221
-33 -295 -22 -253 39 -331 53 -363 66 -62 26 -46 14 123 -99 8 -5 24 -19 36
-30 59 -55 96 -85 103 -85 5 0 22 -13 38 -28 43 -40 142 -112 155 -112 6 0 16
-11 22 -25 6 -14 17 -25 24 -25 7 0 17 -8 23 -18 9 -16 39 -17 365 -20 l355
-3 -34 53 c-19 29 -42 61 -52 71 -10 10 -12 17 -5 17 6 0 33 -31 59 -70 l48
-69 609 -1 c672 0 617 -6 558 59 -12 13 -33 38 -45 54 -25 33 -70 86 -107 126
-14 15 -57 63 -97 107 -94 103 -209 225 -278 294 -30 30 -55 61 -55 67 0 7 50
-36 110 -97 61 -60 110 -113 110 -119 0 -5 9 -13 20 -16 11 -3 20 -9 20 -13 0
-4 24 -32 53 -63 122 -130 225 -246 311 -351 34 -42 43 -48 77 -48 l39 0 -37
40 c-21 22 -43 40 -50 40 -17 0 -31 29 -26 54 4 16 2 18 -5 7 -13 -18 -44 -7
-36 14 6 15 -5 20 -35 15 -8 -1 -12 4 -8 14 4 10 1 13 -7 10 -8 -3 -12 3 -12
18 1 17 -5 24 -22 26 -12 2 -20 8 -16 13 3 6 0 16 -6 24 -7 8 -9 15 -4 15 12
1 -27 24 -44 26 -7 1 -20 8 -27 14 -16 13 -20 31 -7 29 4 -1 14 -1 22 0 24 2
-9 21 -37 21 -13 0 -23 5 -23 10 0 6 5 10 10 10 6 0 10 4 10 10 0 5 -10 9 -22
7 -19 -2 -22 2 -20 22 3 21 1 23 -22 17 -25 -6 -38 8 -14 16 21 7 -3 28 -26
22 -29 -7 -58 22 -32 32 12 5 14 10 6 19 -5 6 -7 15 -3 19 4 4 0 4 -10 1 -12
-5 -20 1 -29 22 -15 32 -28 44 -42 36 -5 -4 -7 1 -3 10 4 11 -2 17 -23 22 -20
4 -27 11 -23 21 4 10 -2 17 -16 21 -11 3 -18 9 -15 14 3 5 -1 9 -10 9 -8 0
-17 -6 -19 -12 -3 -8 -6 -6 -6 5 -1 9 -8 17 -18 17 -14 0 -14 2 2 20 10 11 13
20 7 20 -6 0 -27 14 -47 32 -28 24 -33 33 -23 40 9 7 7 9 -7 6 -22 -5 -90 58
-74 68 5 3 9 10 9 15 0 6 -5 7 -11 3 -6 -3 -15 0 -20 7 -7 11 -9 10 -9 -4 0
-11 -5 -15 -11 -11 -6 3 -8 15 -6 25 4 14 -3 24 -25 35 -19 10 -27 19 -20 23
8 5 5 12 -8 24 -27 23 -26 40 3 32 22 -7 22 -7 2 9 -11 8 -14 16 -8 16 9 0 8
9 -4 35 -9 19 -21 31 -26 28 -6 -3 -7 -1 -4 5 11 16 47 2 47 -19 0 -18 24 -27
33 -11 7 9 -39 62 -53 62 -6 0 -8 5 -5 10 4 6 14 9 23 8 9 -2 17 4 17 12 0 8
9 16 20 19 16 3 17 1 7 -12 -10 -11 -9 -17 5 -28 15 -12 16 -12 10 4 -4 11 -2
17 8 17 18 0 31 20 18 29 -15 10 -24 41 -12 41 6 0 9 9 6 19 -3 15 -1 18 12
14 9 -3 3 4 -14 16 -16 11 -36 21 -42 21 -7 0 -13 5 -13 12 0 9 -3 9 -11 1 -7
-7 -22 -7 -47 -1 -20 6 -59 13 -87 18 -27 4 -39 8 -25 9 20 1 22 3 10 11 -8 5
-37 7 -64 5 -37 -5 -53 -2 -67 11 -16 14 -24 15 -45 6 -33 -16 -37 -15 -30 3
7 18 -15 20 -32 3 -9 -9 -12 -9 -12 -1 0 8 -9 9 -28 3 -28 -7 -102 6 -129 23
-7 5 -18 5 -23 2 -12 -8 -70 16 -70 29 0 4 42 6 93 2 50 -3 155 -8 232 -11 77
-3 166 -8 198 -11 40 -4 57 -2 52 5 -3 6 -20 11 -36 11 -17 0 -38 4 -48 10
-17 8 -32 12 -111 26 -65 11 -179 40 -186 47 -13 13 80 8 217 -13 126 -18 170
-27 262 -51 26 -7 43 -6 55 1 14 9 13 10 -7 4 -13 -3 -21 -2 -18 3 3 5 -4 10
-15 10 -11 1 -28 9 -38 18 -10 9 -35 21 -56 27 -41 11 -109 39 -156 64 -19 10
-28 11 -28 4 0 -6 -13 -2 -29 9 -16 12 -37 21 -46 21 -21 0 -95 40 -95 52 0 4
-7 8 -15 8 -8 0 -15 4 -15 9 0 5 -14 12 -31 16 -17 4 -28 10 -25 13 7 7 -74
62 -91 62 -6 0 -14 4 -17 9 -8 12 4 42 13 37 10 -6 8 66 -2 81 -8 13 12 53 27
53 4 0 3 7 -5 16 -10 13 -10 17 1 24 7 4 15 25 17 47 5 44 11 52 42 58 25 5
25 -2 5 -74 -5 -17 -4 -22 5 -17 6 4 9 11 7 15 -3 4 3 13 13 20 11 8 16 21 14
32 -3 12 0 19 8 19 14 0 76 108 72 122 -2 5 1 8 6 8 10 0 45 85 48 119 1 13 7
27 13 31 6 4 5 13 -5 26 -15 19 -15 19 -35 -5 -11 -13 -22 -22 -25 -20 -2 2 3
38 12 79 8 41 16 82 17 90 1 9 5 21 10 28 4 7 5 21 1 31 -3 11 -1 22 5 26 5 3
10 24 10 45 0 21 5 42 11 46 6 3 8 17 5 29 -4 17 0 28 12 37 31 22 45 57 34
86 -5 15 -10 49 -11 76 0 27 -4 52 -9 55 -4 3 -9 22 -10 41 -1 22 -10 42 -25
54 -12 10 -21 23 -19 28 1 6 -2 16 -8 22 -5 7 -7 16 -3 20 4 4 0 4 -10 0 -11
-4 -17 -1 -17 8 0 7 -10 18 -22 23 -14 6 -22 17 -20 28 2 11 -4 17 -15 17 -10
0 -40 23 -67 50 -27 28 -54 50 -60 50 -12 0 -39 19 -83 57 -14 12 -34 25 -44
28 -11 4 -19 10 -19 15 0 5 -13 16 -29 24 -26 14 -30 13 -50 -5z m-806 -461
c13 -13 33 -31 46 -40 l24 -17 -22 -7 c-28 -8 -32 -58 -6 -73 13 -7 17 -21 16
-50 -2 -42 11 -53 35 -29 9 9 12 8 12 -4 0 -9 -7 -18 -15 -22 -9 -3 -12 -12
-8 -22 5 -13 2 -16 -9 -12 -11 5 -15 -1 -15 -24 0 -24 4 -29 19 -25 27 7 32
-10 7 -23 -15 -9 -24 -9 -32 -1 -6 6 -20 11 -30 11 -10 0 -21 9 -24 20 -7 26
-35 26 -58 0 -20 -23 -102 -56 -112 -46 -4 4 -1 11 7 17 13 8 11 12 -7 28 -28
24 -30 67 -4 76 13 4 17 12 14 25 -3 11 -9 20 -13 20 -4 0 -10 12 -13 28 -5
27 -3 31 49 85 12 12 26 32 33 45 6 12 19 22 28 22 10 0 14 6 10 20 -7 29 39
27 68 -2z m963 -174 c-10 -10 -28 6 -28 24 0 15 1 15 17 -1 9 -9 14 -19 11
-23z m61 -43 c11 -4 -24 -31 -40 -31 -21 0 -22 2 -13 23 4 11 31 16 53 8z
m-119 -87 c0 -3 -7 -1 -15 6 -8 7 -15 17 -15 22 0 5 7 3 15 -6 8 -8 15 -18 15
-22z m-719 3 c-1 -12 -15 -9 -19 4 -3 6 1 10 8 8 6 -3 11 -8 11 -12z m53 -3
c3 -9 12 -14 19 -11 7 3 24 -4 37 -16 l25 -20 -29 7 c-23 6 -27 4 -23 -8 7
-18 -18 -23 -28 -6 -9 15 -48 -9 -41 -26 3 -8 -1 -14 -9 -14 -23 0 -18 28 9
51 15 13 22 28 19 40 -6 23 12 26 21 3z m764 -11 c26 -57 10 -85 -49 -89 -38
-2 -109 11 -109 21 0 15 14 35 25 35 7 0 20 11 29 25 18 27 45 32 64 13 9 -9
12 -8 12 5 0 25 13 20 28 -10z m-888 -58 c0 -8 7 -15 15 -15 9 0 14 -8 12 -22
-1 -15 3 -23 13 -23 8 0 20 -3 25 -6 12 -6 39 -4 78 6 24 6 27 4 27 -17 0 -22
-6 -25 -82 -36 -57 -9 -93 -10 -116 -3 -18 6 -40 7 -48 4 -26 -10 -124 7 -124
22 0 16 25 26 45 18 9 -3 25 3 35 12 21 19 23 19 90 -15 12 -6 16 -1 18 21 1
15 -2 30 -8 34 -15 10 -12 35 5 35 8 0 15 -7 15 -15z m-50 -21 c0 -9 -5 -14
-12 -12 -18 6 -21 28 -4 28 9 0 16 -7 16 -16z m854 -275 c-6 -11 -24 -2 -24
11 0 5 7 7 15 4 8 -4 12 -10 9 -15z m-1019 -19 c12 -11 27 -20 33 -20 7 0 12
-7 12 -15 0 -8 9 -19 19 -25 26 -13 31 -13 31 5 0 14 29 35 49 35 6 0 11 -4
11 -10 0 -5 -6 -10 -14 -10 -7 0 -19 -6 -25 -14 -18 -22 14 -76 46 -76 33 0
25 -24 -9 -28 -17 -2 -31 4 -40 16 -22 32 -54 44 -78 30 -15 -10 -22 -10 -31
-1 -10 10 -7 14 12 22 22 8 19 9 -24 16 -26 4 -51 14 -56 22 -15 28 -20 -3 -5
-32 17 -32 13 -39 -15 -30 -12 4 -18 12 -14 21 3 8 -1 14 -11 14 -9 0 -16 7
-16 15 0 8 -5 15 -11 15 -5 0 -7 5 -4 10 3 6 15 10 26 10 13 0 19 7 19 23 0
13 3 27 7 31 12 12 65 -3 88 -24z m-115 10 c0 -5 -4 -10 -10 -10 -5 0 -10 5
-10 10 0 6 5 10 10 10 6 0 10 -4 10 -10z m359 -95 c16 -5 20 -10 12 -18 -7 -7
-17 -5 -32 9 -12 10 -24 18 -28 16 -3 -2 -8 5 -10 15 -3 17 -2 17 15 2 11 -9
30 -20 43 -24z m-381 -12 c-10 -2 -18 -14 -18 -25 0 -17 2 -18 15 -8 13 11 15
8 15 -17 0 -16 -5 -34 -12 -41 -9 -9 -8 -16 5 -30 21 -23 21 -32 3 -32 -8 0
-19 12 -25 28 -6 15 -17 36 -26 47 -13 19 -13 24 5 53 11 18 27 31 37 31 17
-1 17 -2 1 -6z m83 -55 c11 -21 11 -22 -4 -9 -10 7 -17 17 -17 22 0 15 9 10
21 -13z m36 -58 c-27 -21 -47 -26 -47 -10 0 12 30 29 54 30 16 0 15 -3 -7 -20z
m-122 -160 c3 -5 -1 -10 -9 -10 -9 0 -16 5 -16 10 0 6 4 10 9 10 6 0 13 -4 16
-10z m1165 -82 c0 -5 -7 -8 -15 -8 -9 0 -15 -9 -15 -25 0 -14 5 -25 12 -25 6
0 8 -3 5 -6 -4 -4 -14 -1 -23 7 -14 11 -18 10 -30 -6 -12 -16 -12 -21 0 -33
12 -12 17 -11 40 3 14 10 26 16 27 14 6 -32 5 -39 -7 -39 -8 0 -19 -11 -25
-24 -8 -16 -20 -23 -40 -24 -16 0 -29 4 -29 9 0 5 -5 9 -11 9 -6 0 -8 -9 -4
-20 4 -11 2 -20 -4 -20 -6 0 -11 5 -11 11 0 7 -10 9 -25 5 -14 -4 -25 -2 -25
4 0 5 -16 10 -36 10 -21 0 -33 4 -29 10 3 6 16 10 27 10 12 0 18 3 14 7 -4 4
-26 6 -49 5 -23 -1 -36 1 -30 4 8 4 11 15 7 30 -4 17 -2 24 9 24 8 0 20 6 26
13 7 9 32 14 70 13 33 -1 57 3 53 8 -3 5 10 7 31 3 35 -5 36 -5 31 22 -4 19 0
33 12 45 16 17 18 17 30 -6 7 -12 13 -26 14 -30z m-1591 25 c3 -2 -4 -13 -15
-24 -20 -20 -22 -20 -62 -2 -23 10 -42 21 -42 25 0 12 38 10 45 -2 10 -17 38
-12 31 6 -5 12 -1 14 17 8 12 -3 24 -8 26 -11z m261 -3 c0 -5 -4 -10 -9 -10
-6 0 -13 5 -16 10 -3 6 1 10 9 10 9 0 16 -4 16 -10z m245 -30 c15 0 26 -7 30
-20 4 -14 15 -20 35 -20 20 0 33 -7 41 -21 10 -20 16 -21 83 -14 39 4 94 7
121 6 28 -1 67 -2 89 -2 21 0 45 -6 53 -14 8 -8 10 -15 4 -15 -6 0 -11 -6 -11
-14 0 -12 4 -12 30 1 23 11 37 12 58 5 15 -6 21 -11 15 -11 -8 -1 -13 -14 -13
-32 0 -24 -4 -30 -16 -25 -8 3 -13 2 -10 -2 2 -4 -12 -19 -32 -32 -20 -14 -45
-33 -55 -43 -14 -14 -27 -17 -54 -12 -30 5 -35 3 -40 -15 -4 -14 -11 -19 -24
-15 -10 3 -28 1 -40 -5 -15 -9 -24 -9 -32 -1 -15 15 -54 14 -60 -1 -3 -9 -9
-8 -18 5 -16 21 -89 36 -89 18 0 -6 5 -11 11 -11 8 0 8 -5 -1 -15 -15 -19 -31
-19 -55 -2 -15 12 -16 19 -7 45 12 35 -1 45 -23 16 -9 -13 -21 -15 -53 -9 -23
4 -40 11 -37 16 3 4 -1 20 -10 33 -10 15 -14 33 -10 46 5 14 2 20 -9 20 -9 0
-16 -7 -16 -15 0 -8 -3 -15 -7 -15 -15 1 -77 60 -64 60 11 0 11 3 1 14 -10 13
-7 13 20 3 25 -10 33 -9 40 3 5 8 7 17 4 21 -2 4 0 10 6 14 5 3 10 -1 10 -9 0
-9 5 -16 11 -16 6 0 9 6 6 14 -3 8 1 20 9 26 8 7 14 19 14 27 0 10 6 12 20 8
12 -4 20 -2 20 5 0 7 7 9 16 6 9 -3 26 -6 39 -6z m-576 -36 c-8 -8 -24 -11
-37 -8 -34 9 -26 20 14 21 31 1 34 -1 23 -13z m-139 -44 c0 -5 -4 -10 -10 -10
-5 0 -10 5 -10 10 0 6 5 10 10 10 6 0 10 -4 10 -10z m453 -32 c41 -22 50 -36
33 -54 -19 -18 -40 -9 -31 14 4 10 -3 23 -17 34 -26 20 -17 24 15 6z m1494
-30 c-3 -8 -6 -5 -6 6 -1 11 2 17 5 13 3 -3 4 -12 1 -19z m-1287 -148 c0 -5
-7 -10 -16 -10 -8 0 -12 5 -9 10 3 6 10 10 16 10 5 0 9 -4 9 -10z m1340 -34
c0 -3 -4 -8 -10 -11 -5 -3 -10 -1 -10 4 0 6 5 11 10 11 6 0 10 -2 10 -4z
m-428 -359 l3 -168 -34 -29 c-18 -17 -41 -30 -50 -30 -10 0 -26 -7 -37 -15
-24 -18 -108 -20 -122 -2 -9 10 1 16 48 26 33 8 60 17 60 22 0 5 -5 9 -10 9
-6 0 5 22 24 49 34 48 36 59 21 94 -4 11 -3 23 4 30 6 6 11 19 11 29 0 10 5
18 12 18 9 0 9 3 0 12 -18 18 -15 42 8 68 11 13 20 27 20 32 0 14 24 37 32 30
4 -4 8 -83 10 -175z m-1642 142 c0 -11 -30 -12 -48 0 -9 5 -3 8 17 9 17 0 31
-4 31 -9z m2490 -308 c0 -5 -7 -11 -15 -15 -15 -5 -20 5 -8 17 9 10 23 9 23
-2z m75 -181 c3 -5 1 -10 -4 -10 -6 0 -11 5 -11 10 0 6 2 10 4 10 3 0 8 -4 11
-10z m95 -101 c0 -5 -9 -1 -20 8 -11 10 -20 22 -20 27 0 5 9 1 20 -9 11 -10
20 -22 20 -26z m25 -19 c3 -5 1 -10 -4 -10 -6 0 -11 5 -11 10 0 6 2 10 4 10 3
0 8 -4 11 -10z m-655 -590 c10 -19 10 -20 -9 -8 -11 6 -17 16 -15 20 8 12 12
10 24 -12z"/>
<path d="M4870 2189 c0 -5 5 -7 10 -4 6 3 10 8 10 11 0 2 -4 4 -10 4 -5 0 -10
-5 -10 -11z"/>
<path d="M4000 2100 c0 -5 9 -10 21 -10 11 0 17 5 14 10 -3 6 -13 10 -21 10
-8 0 -14 -4 -14 -10z"/>
<path d="M4010 2061 c0 -11 5 -23 10 -26 6 -3 10 -1 10 5 0 7 7 9 18 5 13 -5
12 -1 -5 14 -27 26 -33 26 -33 2z"/>
<path d="M3190 3019 c0 -5 5 -7 10 -4 6 3 10 8 10 11 0 2 -4 4 -10 4 -5 0 -10
-5 -10 -11z"/>
<path d="M3252 2986 c1 -10 8 -17 13 -17 15 1 12 24 -3 29 -9 3 -13 -2 -10
-12z"/>
<path d="M5311 2984 c0 -11 3 -14 6 -6 3 7 2 16 -1 19 -3 4 -6 -2 -5 -13z"/>
<path d="M2887 2940 c4 -15 0 -20 -16 -20 -33 0 -26 -37 14 -77 27 -27 39 -33
57 -28 13 4 26 10 30 14 10 8 -19 91 -39 114 -23 24 -53 23 -46 -3z"/>
<path d="M5293 2949 c-17 -21 -27 -69 -14 -69 6 0 11 6 11 14 0 8 5 16 11 18
6 2 9 14 7 27 -2 20 -5 22 -15 10z"/>
<path d="M3280 2919 c0 -5 5 -7 10 -4 6 3 10 8 10 11 0 2 -4 4 -10 4 -5 0 -10
-5 -10 -11z"/>
<path d="M3280 2754 c0 -8 5 -12 10 -9 6 3 10 10 10 16 0 5 -4 9 -10 9 -5 0
-10 -7 -10 -16z"/>
<path d="M3287 2658 c-18 -19 -18 -20 5 -16 12 2 24 11 26 21 4 22 -8 20 -31
-5z"/>
<path d="M3206 2631 c-4 -5 3 -7 14 -4 23 6 26 13 6 13 -8 0 -17 -4 -20 -9z"/>
<path d="M3120 2620 c0 -5 5 -10 11 -10 5 0 7 5 4 10 -3 6 -8 10 -11 10 -2 0
-4 -4 -4 -10z"/>
<path d="M3170 2609 c0 -5 5 -7 10 -4 6 3 10 8 10 11 0 2 -4 4 -10 4 -5 0 -10
-5 -10 -11z"/>
<path d="M3149 2528 c-3 -11 -5 -48 -3 -48 11 0 23 40 14 45 -5 3 -10 5 -11 3z"/>
<path d="M3250 2511 c13 -9 13 -11 -1 -11 -11 0 -16 -10 -17 -32 -1 -26 1 -29
9 -16 5 10 17 14 29 11 16 -4 20 0 20 21 0 14 -4 26 -9 26 -5 0 -18 3 -28 6
-15 5 -15 4 -3 -5z"/>
<path d="M3300 2510 c0 -5 5 -10 11 -10 5 0 7 5 4 10 -3 6 -8 10 -11 10 -2 0
-4 -4 -4 -10z"/>
<path d="M3315 2470 c-3 -5 -1 -10 4 -10 6 0 11 5 11 10 0 6 -2 10 -4 10 -3 0
-8 -4 -11 -10z"/>
<path d="M3400 2466 c0 -8 6 -17 13 -19 7 -3 5 -6 -5 -6 -20 -1 -24 -16 -7
-26 14 -9 18 -4 25 33 5 25 3 32 -10 32 -9 0 -16 -6 -16 -14z"/>
<path d="M3005 2380 c3 -5 8 -10 11 -10 2 0 4 5 4 10 0 6 -5 10 -11 10 -5 0
-7 -4 -4 -10z"/>
<path d="M2745 2310 c-3 -5 -1 -10 4 -10 6 0 11 5 11 10 0 6 -2 10 -4 10 -3 0
-8 -4 -11 -10z"/>
<path d="M3520 2300 c0 -5 5 -10 10 -10 6 0 10 5 10 10 0 6 -4 10 -10 10 -5 0
-10 -4 -10 -10z"/>
<path d="M2195 2274 c-4 -16 -8 -33 -9 -39 -2 -5 0 -19 4 -30 5 -13 9 -3 13
35 7 59 2 80 -8 34z"/>
<path d="M1790 2264 c0 -3 5 -15 11 -26 10 -18 9 -20 -7 -14 -15 6 -16 4 -7
-5 6 -6 9 -17 7 -24 -13 -32 81 -152 110 -142 6 2 10 19 8 36 -3 28 3 39 39
72 40 37 41 39 18 40 -13 1 -30 1 -36 0 -7 -1 -13 2 -13 8 0 5 -18 12 -39 16
-22 3 -47 15 -57 26 -16 18 -34 25 -34 13z"/>
<path d="M5850 1962 c0 -5 7 -15 15 -22 8 -7 15 -8 15 -2 0 5 -7 15 -15 22 -8
7 -15 8 -15 2z"/>
<path d="M6417 1893 c5 -12 3 -14 -7 -8 -10 6 -12 4 -7 -8 3 -9 2 -17 -3 -19
-4 -2 -10 -19 -12 -38 -3 -33 -1 -35 27 -35 17 0 32 -3 35 -7 3 -4 48 -14 99
-22 80 -13 95 -13 107 -1 21 21 17 25 -23 22 -24 -1 -38 3 -39 11 -1 6 -2 16
-3 21 0 5 -14 11 -31 15 -30 5 -41 31 -18 38 8 3 6 8 -7 15 -33 17 -75 24 -75
13 0 -5 -4 -10 -10 -10 -5 0 -7 7 -4 15 4 10 0 15 -15 15 -15 0 -19 -4 -14
-17z m103 -23 c0 -5 -5 -10 -11 -10 -5 0 -7 5 -4 10 3 6 8 10 11 10 2 0 4 -4
4 -10z m-92 -41 c17 -27 5 -40 -14 -15 -8 11 -14 23 -14 28 0 15 15 8 28 -13z
m52 -8 c0 -5 3 -17 7 -27 4 -11 2 -15 -7 -12 -16 5 -24 48 -10 48 6 0 10 -4
10 -9z m40 -21 c0 -5 -5 -10 -11 -10 -5 0 -7 5 -4 10 3 6 8 10 11 10 2 0 4 -4
4 -10z"/>
<path d="M5930 1880 c0 -5 5 -10 11 -10 5 0 7 5 4 10 -3 6 -8 10 -11 10 -2 0
-4 -4 -4 -10z"/>
<path d="M5990 1836 c0 -2 8 -10 18 -17 15 -13 16 -12 3 4 -13 16 -21 21 -21
13z"/>
<path d="M6670 1806 c0 -14 5 -26 11 -26 6 0 9 -9 6 -20 -4 -15 0 -20 13 -20
10 0 21 6 24 13 3 6 4 3 3 -8 -2 -17 4 -20 36 -22 30 -1 37 3 37 17 0 10 -9
22 -21 25 -12 4 -18 13 -15 20 4 12 -22 24 -64 30 -3 0 -11 4 -17 8 -9 6 -13
1 -13 -17z"/>
<path d="M6036 1786 c2 -6 14 -18 27 -25 21 -13 22 -13 4 6 -9 11 -15 22 -12
25 3 2 -1 5 -9 5 -8 0 -12 -5 -10 -11z"/>
<path d="M6810 1760 c0 -5 5 -10 11 -10 5 0 7 5 4 10 -3 6 -8 10 -11 10 -2 0
-4 -4 -4 -10z"/>
<path d="M6890 1721 c0 -9 -9 -12 -25 -9 -13 3 -22 1 -19 -3 7 -13 42 -11 49
2 4 6 4 13 1 16 -3 4 -6 1 -6 -6z"/>
<path d="M5695 1680 c3 -5 13 -10 21 -10 8 0 14 5 14 10 0 6 -9 10 -21 10 -11
0 -17 -4 -14 -10z"/>
<path d="M5780 1680 c0 -5 5 -10 10 -10 6 0 10 5 10 10 0 6 -4 10 -10 10 -5 0
-10 -4 -10 -10z"/>
<path d="M6480 1663 c0 -5 15 -8 34 -8 19 0 32 3 29 8 -2 4 -17 7 -34 7 -16 0
-29 -3 -29 -7z"/>
<path d="M6575 1645 l-30 -14 26 -1 c15 0 32 7 39 15 15 18 5 18 -35 0z"/>
<path d="M6630 1644 c0 -10 7 -14 22 -12 31 4 33 23 3 26 -17 1 -25 -3 -25
-14z"/>
<path d="M6700 1635 c0 -12 13 -15 58 -16 31 0 81 -2 110 -3 70 -4 53 12 -28
25 -47 7 -65 7 -70 -2 -6 -8 -9 -8 -14 0 -11 17 -56 14 -56 -4z"/>
<path d="M6935 1610 c3 -5 10 -10 16 -10 5 0 9 5 9 10 0 6 -7 10 -16 10 -8 0
-12 -4 -9 -10z"/>
<path d="M6865 1560 c-3 -5 3 -10 14 -10 12 0 21 5 21 10 0 6 -6 10 -14 10 -8
0 -18 -4 -21 -10z"/>
<path d="M6940 1560 c0 -5 6 -10 14 -10 8 0 18 5 21 10 3 6 -3 10 -14 10 -12
0 -21 -4 -21 -10z"/>
<path d="M6780 1548 c0 -5 16 -8 35 -8 19 0 35 4 35 10 0 5 -16 9 -35 7 -19
-1 -35 -5 -35 -9z"/>
<path d="M5658 1523 c7 -3 16 -2 19 1 4 3 -2 6 -13 5 -11 0 -14 -3 -6 -6z"/>
<path d="M6980 1518 c0 -13 56 -68 69 -68 6 0 8 8 4 18 -6 15 -3 14 17 -3 l23
-20 -14 22 c-7 13 -20 22 -28 20 -8 -1 -16 4 -19 12 -3 10 0 12 14 7 15 -6 16
-5 7 5 -15 15 -73 20 -73 7z"/>
<path d="M6854 1489 c0 -20 11 -25 20 -10 3 5 0 13 -7 19 -10 8 -13 6 -13 -9z"/>
<path d="M6753 1493 c9 -2 23 -2 30 0 6 3 -1 5 -18 5 -16 0 -22 -2 -12 -5z"/>
<path d="M6865 1460 c-3 -5 -1 -10 5 -10 7 0 10 -6 7 -14 -3 -8 1 -17 9 -20
23 -9 31 -7 14 4 -12 8 -12 10 3 16 14 5 15 9 6 20 -13 16 -35 18 -44 4z"/>
<path d="M7070 1410 c13 -24 17 -25 17 -5 0 8 -6 16 -14 19 -11 4 -11 1 -3
-14z"/>
<path d="M7110 1363 c0 -18 61 -94 70 -88 14 9 13 16 -16 60 -14 22 -23 31
-19 21 6 -19 5 -19 -15 -1 -11 10 -20 14 -20 8z"/>
<path d="M7224 1321 c3 -18 6 -37 6 -42 0 -5 6 -9 14 -9 11 0 12 6 2 35 -17
47 -30 58 -22 16z"/>
<path d="M7030 1331 c0 -7 -4 -9 -10 -6 -6 3 -7 -1 -4 -9 3 -9 15 -16 26 -16
11 0 18 -5 16 -12 -6 -18 80 -118 102 -118 12 0 -22 45 -87 116 -18 19 -32 37
-32 40 1 3 -2 8 -5 12 -3 3 -6 0 -6 -7z"/>
<path d="M7291 1294 c0 -11 3 -14 6 -6 3 7 2 16 -1 19 -3 4 -6 -2 -5 -13z"/>
<path d="M6915 1270 c3 -5 11 -10 16 -10 6 0 7 5 4 10 -3 6 -11 10 -16 10 -6
0 -7 -4 -4 -10z"/>
<path d="M6954 1252 c-10 -15 -6 -22 25 -44 49 -35 72 -22 31 17 -16 16 -30
25 -31 19 0 -5 -4 -1 -7 8 -7 17 -8 17 -18 0z"/>
<path d="M4260 1166 c0 -2 7 -7 16 -10 8 -3 12 -2 9 4 -6 10 -25 14 -25 6z"/>
<path d="M7079 1133 c14 -10 45 -35 70 -55 25 -21 50 -38 54 -38 13 0 -76 72
-115 93 -32 17 -32 17 -9 0z"/>
<path d="M7644 1105 c-6 -34 -1 -55 11 -43 10 10 14 68 5 73 -5 3 -12 -11 -16
-30z"/>
<path d="M7281 1094 c0 -11 3 -14 6 -6 3 7 2 16 -1 19 -3 4 -6 -2 -5 -13z"/>
<path d="M7282 1004 c3 -35 8 -41 68 -76 58 -34 129 -62 137 -55 1 2 -23 14
-55 27 -93 38 -132 68 -132 101 0 15 -5 31 -11 34 -7 5 -9 -6 -7 -31z"/>
<path d="M3351 988 c-1 -22 14 -31 39 -23 29 9 25 28 -4 21 -15 -4 -26 -1 -29
7 -3 7 -6 5 -6 -5z"/>
<path d="M3597 980 c-3 -11 -1 -20 4 -20 5 0 9 6 9 14 0 8 6 17 13 19 7 4 6 6
-4 6 -9 1 -19 -8 -22 -19z"/>
<path d="M3649 996 c-11 -12 3 -76 18 -76 8 0 11 5 8 10 -3 6 1 10 9 10 19 0
20 -5 6 -29 -12 -23 -65 -19 -130 8 -25 11 -53 22 -64 25 -11 4 -16 12 -12 21
7 19 -4 19 -38 1 l-27 -14 31 -26 c18 -14 40 -26 49 -26 10 0 28 -9 41 -20 13
-11 27 -20 32 -20 5 0 27 -9 49 -19 22 -11 66 -25 97 -32 31 -7 60 -17 64 -23
4 -6 16 -6 33 2 24 11 27 11 22 -3 -4 -8 -3 -15 1 -16 32 -3 58 -11 60 -19 2
-5 19 -6 38 -3 28 5 33 3 29 -9 -5 -11 1 -15 19 -15 15 0 26 6 29 18 4 14 0
19 -14 19 -10 0 -19 5 -19 10 0 6 -9 10 -20 10 -11 0 -20 7 -20 15 0 8 -9 15
-20 15 -11 0 -20 5 -20 10 0 6 -9 10 -19 10 -10 0 -21 7 -25 15 -3 8 -10 15
-16 15 -6 0 -20 9 -32 19 -11 11 -26 17 -34 14 -9 -3 -14 1 -14 12 0 12 -6 16
-20 12 -15 -4 -22 1 -26 19 -4 14 -16 27 -30 30 -12 3 -24 13 -26 21 -2 8 -5
12 -9 9z m91 -146 c0 -11 -6 -20 -14 -20 -9 0 -12 7 -9 20 3 11 9 20 14 20 5
0 9 -9 9 -20z"/>
<path d="M7641 964 c0 -11 3 -14 6 -6 3 7 2 16 -1 19 -3 4 -6 -2 -5 -13z"/>
<path d="M7640 924 c0 -11 5 -14 16 -10 9 3 20 6 25 6 6 0 7 5 4 10 -10 16
-45 12 -45 -6z"/>
<path d="M7524 861 c3 -5 15 -7 26 -4 28 7 25 13 -6 13 -14 0 -23 -4 -20 -9z"/>
<path d="M7678 863 c7 -3 16 -2 19 1 4 3 -2 6 -13 5 -11 0 -14 -3 -6 -6z"/>
<path d="M7547 827 c-21 -26 -21 -31 -2 -47 9 -8 15 -9 15 -2 0 6 -5 14 -11
17 -7 5 -4 14 7 26 9 11 15 21 13 23 -2 3 -12 -5 -22 -17z"/>
<path d="M7656 814 c-4 -9 0 -21 8 -28 8 -6 16 -20 18 -31 2 -16 -2 -20 -22
-19 -14 1 -30 -6 -37 -15 -7 -9 -13 -12 -13 -7 0 6 -6 2 -13 -8 -11 -15 -17
-17 -35 -7 -12 6 -22 8 -22 3 0 -5 21 -20 48 -33 46 -23 47 -25 49 -74 2 -27
5 -83 9 -122 5 -68 7 -73 29 -73 46 0 56 49 17 93 -14 15 -13 17 2 17 14 0 15
4 6 20 -6 11 -7 20 -3 20 4 0 -1 6 -10 13 -13 10 -14 20 -6 61 7 39 6 54 -6
72 -13 20 -12 23 1 28 9 3 17 6 19 6 1 0 6 -24 9 -52 4 -29 11 -57 16 -63 4
-5 15 -44 23 -85 22 -106 32 -129 57 -127 17 1 20 8 20 49 0 45 -31 159 -50
183 -4 6 -13 28 -20 50 -7 22 -15 45 -19 50 -3 6 -7 19 -8 30 -2 11 -8 22 -14
24 -5 1 -18 12 -28 23 -17 17 -19 18 -25 2z"/>
<path d="M7247 732 c84 -66 200 -138 209 -129 2 2 -8 10 -24 18 -33 17 -147
94 -185 126 -16 13 -33 23 -39 23 -5 0 12 -17 39 -38z"/>
<path d="M6215 740 c3 -5 8 -10 11 -10 2 0 4 5 4 10 0 6 -5 10 -11 10 -5 0 -7
-4 -4 -10z"/>
<path d="M7505 729 c-4 -6 -5 -12 -2 -15 2 -3 7 2 10 11 7 17 1 20 -8 4z"/>
<path d="M4020 721 c0 -6 5 -13 10 -16 6 -3 10 1 10 9 0 9 -4 16 -10 16 -5 0
-10 -4 -10 -9z"/>
<path d="M7517 657 c7 -11 23 -82 25 -107 0 -8 9 -25 20 -37 21 -22 17 -43 -7
-43 -20 0 -45 -28 -45 -51 0 -15 7 -19 34 -19 31 0 34 3 41 38 4 20 12 43 18
51 9 11 9 15 0 18 -9 3 -11 18 -6 48 5 38 3 44 -16 50 -11 3 -21 15 -21 25 0
19 -14 33 -38 36 -6 1 -9 -3 -5 -9z"/>
<path d="M57 619 c-10 -6 -27 -9 -38 -6 -16 4 -19 0 -19 -32 0 -20 5 -42 10
-47 8 -8 8 -19 0 -38 -17 -45 -13 -96 8 -96 15 0 66 63 67 83 0 4 5 11 11 15
26 17 39 78 18 86 -8 3 -12 11 -8 17 3 6 0 15 -7 20 -17 11 -20 11 -42 -2z"/>
<path d="M2877 524 c-4 -21 -5 -40 -3 -41 8 -8 23 55 16 66 -4 8 -10 -2 -13
-25z"/>
<path d="M1269 486 c-5 -4 -194 -19 -261 -20 -25 -1 -44 -4 -42 -7 2 -4 -17
-12 -41 -19 -34 -10 -48 -10 -59 -1 -11 9 -17 8 -29 -4 -9 -9 -23 -12 -33 -8
-12 5 -15 3 -9 -6 6 -10 0 -12 -24 -6 -21 4 -31 3 -31 -5 0 -12 265 -8 420 5
36 3 60 2 53 -2 -6 -4 174 -10 399 -12 342 -3 410 -1 406 10 -3 8 -17 16 -33
17 -16 2 -34 11 -41 20 -6 9 -25 17 -40 18 -69 4 -70 4 -55 13 8 5 -37 9 -113
10 -81 0 -125 -3 -121 -9 9 -15 -60 -17 -104 -4 -14 4 -22 3 -18 -2 3 -5 -17
-9 -46 -8 -29 1 -52 3 -52 4 0 1 -18 3 -40 6 -22 2 -49 6 -61 9 -12 2 -23 3
-25 1z"/>
<path d="M2858 465 c-12 -22 -18 -65 -8 -65 5 0 12 11 16 25 6 26 1 55 -8 40z"/>
<path d="M7410 444 c0 -10 5 -26 10 -34 8 -11 9 -7 4 15 -8 37 -14 45 -14 19z"/>
<path d="M2575 440 c3 -5 11 -10 16 -10 6 0 7 5 4 10 -3 6 -11 10 -16 10 -6 0
-7 -4 -4 -10z"/>
</g>
</svg>
